<svg width="18" height="19" viewBox="0 0 18 19" fill="none"
    xmlns="http://www.w3.org/2000/svg">
    <path d="M11.2544 7.11092H13.7622L12.497 3.63141L11.2544 7.11092Z" fill="#F4C83A"/>
    <path d="M16.6888 0H7.86348C7.21679 0 6.69238 0.526706 6.69238 1.17624V6.15163H9.97765L11.0427 3.43598C11.1036 3.27882 11.1773 3.09015 11.2633 2.86963C11.3493 2.6491 11.4409 2.4661 11.5382 2.32027C11.6354 2.17443 11.7634 2.05656 11.922 1.96665C12.0802 1.87674 12.2761 1.83144 12.5087 1.83144C12.7452 1.83144 12.9429 1.87639 13.1015 1.96665C13.2598 2.05691 13.3877 2.17266 13.4853 2.3146C13.5826 2.45655 13.6647 2.60875 13.7316 2.77193C13.7983 2.93511 13.8835 3.15245 13.9864 3.42465L16.1796 8.86515C16.3515 9.2793 16.4372 9.58017 16.4372 9.76813C16.4372 9.96352 16.3561 10.143 16.1937 10.3058C16.0315 10.4686 15.8359 10.5504 15.6069 10.5504C15.4733 10.5504 15.3588 10.5263 15.2633 10.4785C15.1678 10.4304 15.0878 10.3656 15.0229 10.2832C14.9581 10.2007 14.8883 10.0743 14.8139 9.9037C14.7396 9.73309 14.6754 9.58265 14.6222 9.45239L14.2215 8.39402H11.4279V12.5963H16.6899C17.3366 12.5963 17.861 12.0696 17.861 11.4201V1.17624C17.8599 0.526706 17.3355 0 16.6888 0Z" fill="#F4C83A"/>
    <path d="M7.16543 11.286C7.18834 11.2396 7.20561 11.1936 7.21724 11.1469C7.22851 11.1005 7.24578 11.0424 7.26904 10.9731C7.29195 10.9033 7.30358 10.84 7.30358 10.7816C7.30358 10.7239 7.30358 10.6832 7.30358 10.6598H4.18677C4.20932 10.7529 4.23258 10.8686 4.25584 11.0077C4.27875 11.1469 4.32527 11.3033 4.39434 11.4775C4.46342 11.6516 4.52685 11.8024 4.585 11.9298C4.64245 12.0576 4.69425 12.162 4.74077 12.2431C4.78694 12.3245 4.85002 12.4289 4.93143 12.556C5.01214 12.6838 5.11011 12.8289 5.2257 12.9907C5.34095 13.1531 5.45619 13.2923 5.57213 13.408C5.68738 13.5245 5.78006 13.6285 5.84914 13.7213C5.98764 13.5822 6.13178 13.414 6.28191 13.2169C6.43169 13.0201 6.57618 12.7879 6.71504 12.521C6.85354 12.2548 6.9575 12.0166 7.02658 11.8077C7.096 11.5992 7.14217 11.4251 7.16543 11.286Z" fill="#FFECB0"/>
    <path d="M9.99643 6.40399H1.1711C0.524403 6.40399 0 6.9307 0 7.58059V17.8237C0 18.4733 0.524403 19 1.1711 19H9.99643C10.6431 19 11.1675 18.4733 11.1675 17.8237V7.58059C11.1675 6.9307 10.6431 6.40399 9.99643 6.40399ZM10.0747 16.2256C10.0747 16.2719 10.0747 16.33 10.0747 16.3994C10.0514 16.4691 10.0281 16.5264 10.0052 16.5732C9.98198 16.6195 9.95872 16.6656 9.93616 16.7123C9.88964 16.7586 9.8551 16.8047 9.8322 16.8514C9.80894 16.874 9.78568 16.8978 9.76277 16.9211L9.72823 16.9558C9.70497 16.9558 9.65881 16.9671 9.58973 16.9905C9.54321 16.9905 9.48577 16.9905 9.41669 16.9905C9.34762 16.9905 9.27819 16.9785 9.20876 16.9558C9.13934 16.9324 9.08154 16.9211 9.03573 16.9211C8.87397 16.8514 8.66004 16.77 8.39502 16.6776C8.1293 16.5845 7.8234 16.4571 7.47732 16.2949C7.13089 16.1091 6.83063 15.935 6.57688 15.7732C6.32243 15.5877 6.10323 15.4373 5.91891 15.3208C5.89565 15.3442 5.87239 15.3615 5.84949 15.3729C5.82623 15.3849 5.80297 15.4022 5.78006 15.4249C5.7568 15.4483 5.72825 15.4716 5.69336 15.4946C5.65883 15.518 5.62429 15.5353 5.5894 15.5467C5.55486 15.5587 5.5316 15.57 5.51997 15.5813C5.50799 15.5934 5.49072 15.61 5.46817 15.6334L5.43363 15.6681L5.39909 15.7028L5.36455 15.7374C5.27187 15.8072 5.145 15.8879 4.98359 15.981C4.82183 16.0734 4.63716 16.1778 4.42958 16.2939C4.22165 16.3863 4.04262 16.4677 3.89284 16.5374C3.74236 16.6072 3.60985 16.6645 3.49461 16.7112C3.42518 16.7342 3.32157 16.7689 3.18307 16.8156C3.06712 16.8386 2.92333 16.8733 2.74994 16.9201C2.5769 16.9664 2.42642 17.0011 2.29955 17.0245C2.17232 17.0475 2.06237 17.0592 1.97039 17.0592C1.94713 17.0592 1.91259 17.0592 1.86642 17.0592C1.84316 17.0358 1.797 17.0124 1.72792 16.9894C1.65849 16.9661 1.6007 16.9314 1.55488 16.885C1.50836 16.8383 1.4622 16.8036 1.41638 16.7806C1.41638 16.7572 1.41638 16.7339 1.41638 16.7109C1.41638 16.6641 1.41039 16.6294 1.39911 16.6064C1.38713 16.5831 1.36986 16.5484 1.34731 16.502C1.34731 16.4787 1.35259 16.444 1.36457 16.3976C1.37585 16.3509 1.38184 16.3045 1.38184 16.2585C1.4044 16.1888 1.42801 16.142 1.45127 16.1194C1.47383 16.0727 1.49145 16.038 1.50308 16.015C1.51435 15.9916 1.54325 15.9682 1.58977 15.9452C1.61268 15.8985 1.64722 15.8638 1.69374 15.8408C1.7399 15.8174 1.78572 15.8061 1.83224 15.8061C1.85479 15.8061 1.87805 15.8061 1.90131 15.8061C1.97074 15.7828 2.05708 15.7594 2.16105 15.7364C2.26501 15.713 2.37426 15.6897 2.49021 15.6667C2.62871 15.6199 2.74395 15.5743 2.83664 15.5275C2.92862 15.5045 3.01532 15.4755 3.09637 15.4405C3.17708 15.4058 3.28703 15.3654 3.42553 15.3187C3.56403 15.2723 3.72544 15.203 3.91047 15.1099C4.09513 15.0401 4.2569 14.9654 4.3954 14.8837C4.5339 14.8026 4.62588 14.7506 4.6724 14.7272C4.71821 14.7042 4.74711 14.6869 4.75909 14.6752C4.77037 14.6639 4.78165 14.6522 4.79363 14.6405C4.80491 14.6292 4.81619 14.6232 4.82817 14.6232C4.83945 14.6232 4.85108 14.6232 4.86271 14.6232C4.87398 14.6232 4.88526 14.6178 4.89724 14.6058C4.90852 14.5945 4.92579 14.5771 4.94905 14.5538C4.74112 14.3449 4.51029 14.0787 4.25619 13.7538C4.025 13.4526 3.8058 13.0873 3.59822 12.6579C3.39029 12.2289 3.23981 11.8523 3.14783 11.5273C3.05514 11.2028 2.99734 10.9882 2.97479 10.8838C2.95153 10.7794 2.94025 10.7217 2.94025 10.71C2.94025 10.6987 2.94025 10.6814 2.94025 10.658H1.97003C1.94677 10.658 1.91224 10.664 1.86607 10.6753C1.81955 10.6874 1.76211 10.6753 1.69303 10.6406C1.62396 10.606 1.55982 10.5656 1.50237 10.5189C1.44457 10.4725 1.39242 10.4265 1.3466 10.3798C1.3466 10.3568 1.3466 10.3277 1.3466 10.2927C1.3466 10.2577 1.3466 10.229 1.3466 10.2056C1.3466 10.1826 1.34061 10.1592 1.32933 10.1359C1.31735 10.1129 1.30008 10.1012 1.27753 10.1012C1.30008 10.0782 1.3177 10.0435 1.32933 9.99678C1.34061 9.95041 1.35189 9.90439 1.36387 9.85767C1.37515 9.8113 1.39242 9.77059 1.41568 9.7359C1.43858 9.70121 1.46184 9.68387 1.4851 9.68387C1.53127 9.6375 1.57708 9.59679 1.6236 9.5621C1.66942 9.52742 1.72158 9.50441 1.77937 9.49237C1.83682 9.48105 1.88862 9.47503 1.93514 9.47503C1.98096 9.47503 2.01585 9.47503 2.03911 9.47503H4.94835C4.9709 9.4053 4.97689 9.32459 4.96561 9.2315C4.95363 9.13911 4.94835 9.02867 4.94835 8.90089C4.94835 8.77381 4.9709 8.66338 5.01742 8.57028C5.06359 8.4779 5.1094 8.40816 5.15592 8.36144C5.225 8.33879 5.29971 8.32109 5.38112 8.30941C5.46182 8.29808 5.5598 8.3041 5.67539 8.32675C5.79063 8.35011 5.88332 8.3848 5.95239 8.43117C6.02182 8.4779 6.07891 8.52427 6.12543 8.57028C6.17125 8.61701 6.20614 8.6747 6.2294 8.74408C6.25195 8.81381 6.25794 8.89523 6.24666 8.98761C6.23468 9.08071 6.2294 9.16141 6.2294 9.23114C6.20614 9.30087 6.19486 9.35893 6.19486 9.40494V9.47467H9.31202C9.35819 9.47467 9.42128 9.47467 9.50268 9.47467C9.58339 9.47467 9.66409 9.49804 9.74515 9.54441C9.82585 9.59113 9.88894 9.64316 9.93581 9.70086C9.98162 9.75891 10.0049 9.82263 10.0049 9.89236C10.0278 9.91572 10.0451 9.95643 10.0567 10.0141C10.068 10.0722 10.068 10.1359 10.0567 10.2056C10.0447 10.2754 10.0222 10.3334 9.98726 10.3794C9.95273 10.4261 9.91784 10.4665 9.8833 10.5012C9.84876 10.5359 9.80823 10.5709 9.76207 10.6056C9.71555 10.6403 9.66374 10.6637 9.60629 10.6753C9.5485 10.6874 9.49634 10.6874 9.45053 10.6753C9.40401 10.664 9.35784 10.658 9.31202 10.658H8.62022C8.59696 10.7277 8.5737 10.8091 8.55079 10.9015C8.52753 11.018 8.49899 11.1451 8.4641 11.2842C8.42956 11.4233 8.38903 11.5397 8.34287 11.6321C8.31961 11.7486 8.29635 11.841 8.27379 11.9103C8.25053 11.9801 8.22727 12.0615 8.20436 12.1539C8.15784 12.247 8.11168 12.357 8.06586 12.4845C8.01934 12.6123 7.97318 12.7167 7.92736 12.7974C7.88084 12.8788 7.84067 12.9538 7.80613 13.0236C7.77159 13.0933 7.71943 13.1747 7.65036 13.2671C7.60384 13.3836 7.53441 13.5106 7.44243 13.6497C7.34974 13.7888 7.25741 13.9053 7.16543 13.9977C7.09635 14.1141 7.02693 14.2065 6.9575 14.2759C6.9575 14.3226 6.94552 14.3573 6.92296 14.3803C6.8997 14.4037 6.88243 14.421 6.87116 14.4324C6.85917 14.4444 6.8419 14.4617 6.81935 14.4844C6.95785 14.5775 7.11926 14.6816 7.30428 14.7977C7.48895 14.9141 7.70816 15.0359 7.96225 15.163C8.21599 15.2907 8.44119 15.3835 8.63749 15.4412C8.83344 15.4992 8.98921 15.5516 9.10515 15.5976C9.17458 15.5976 9.25493 15.609 9.34762 15.6323C9.4396 15.6323 9.54356 15.6553 9.65916 15.7021C9.7744 15.7484 9.86709 15.8065 9.93616 15.8759C10.0052 15.9456 10.0514 16.015 10.0747 16.0847C10.0747 16.1095 10.0747 16.1562 10.0747 16.2256Z" fill="#FFECB0"/>
</svg>
