<svg xmlns="http://www.w3.org/2000/svg" viewBox="0 0 159.69 227.2"><g><g><path d="M125.26 11a5.65 5.65 0 0 0-1.72-11C121.19 0 7 24.34 6.86 24.37a3.42 3.42 0 0 0-2.35 3.24 3.91 3.91 0 0 0 1.37 2.72c1.36 1.36 8 2.48 11.85 2.48a30.51 30.51 0 0 0 7.5-.91zM20 38h-2.25a35.09 35.09 0 0 1-10-1.39 11.47 11.47 0 0 0-2.16-.43A5.56 5.56 0 0 0 0 41.76v175.83a4.25 4.25 0 0 0 .16 1.11 6.27 6.27 0 0 0 1.35 2.4c2.62 3 11.94 5.64 16.54 5.64a7.07 7.07 0 0 0 7.16-6.42V43.59A5.55 5.55 0 0 0 20 38z" fill="#3da260"/><path d="M155.06 11a5.64 5.64 0 0 0-.93-.08c-.32 0-119.33 24.33-119.33 24.33a5.56 5.56 0 0 0-4.35 5.4V218a5.56 5.56 0 0 0 5.55 5.54c.36 0 13.42-2.47 30.79-5.77 17.95-3.41 40.49-7.73 58.34-11.14l30.15-5.78a5.67 5.67 0 0 0 2-.89 5.54 5.54 0 0 0 2.37-4.56V16.5a5.56 5.56 0 0 0-4.59-5.5zm-49.61 154a2.19 2.19 0 0 1 2.16-1.86 2.07 2.07 0 0 1 .35 0l9.76 1.53a2.2 2.2 0 1 1-.68 4.34l-9.76-1.53a2.2 2.2 0 0 1-1.83-2.48zm19.68 38.93V97.85l-66-10.45 74.46-13.88v128.8z" fill="#44ab69"/><path d="M59.17 87.4v129.14l66-12.6V97.85zm46.28 77.6a2.19 2.19 0 0 1 2.16-1.86 2.07 2.07 0 0 1 .35 0l9.76 1.53a2.2 2.2 0 1 1-.68 4.34l-9.76-1.53a2.2 2.2 0 0 1-1.83-2.48z" fill="#fff"/><path fill="#379d5b" d="M138.31 71.72v129.7l-4.68.9V73.52l.37-.14 4.28-1.65.03-.01z"/><path fill="#379d5b" d="M54.49 83.45l4.62 3.95 79.17-14.82.03-5.07-83.82 15.94z"/><path d="M59.17 87.4v129.14l7.62 1.23 58.34 9.43V97.85zm46.28 77.6a2.19 2.19 0 0 1 2.16-1.86 2.07 2.07 0 0 1 .35 0l9.76 1.53a2.2 2.2 0 1 1-.68 4.34l-9.76-1.53a2.2 2.2 0 0 1-1.83-2.48z" fill="#3da260"/><path fill="#379d5b" d="M54.49 217.43l4.68-.89V87.4l-4.68-3.95v133.98z"/></g></g></svg>